<svg width="172" height="31" viewBox="0 0 172 31" fill="none" xmlns="http://www.w3.org/2000/svg">
  <g clip-path="url(#clip0_52_33)">
  <path d="M52.4545 4.4986C51.0703 3.11442 49.4122 2.0114 47.5306 1.21116C45.6345 0.41093 43.5943 0 41.4531 0C39.968 0 38.5045 0.216279 37.0987 0.656047C35.7001 1.0886 34.3808 1.7014 33.1696 2.48C31.9657 3.2586 30.8627 4.1814 29.9038 5.21953C29.3775 5.78907 28.9089 6.38744 28.4836 7.01465C28.0654 6.39465 27.604 5.79628 27.0922 5.22674C26.1478 4.1814 25.0664 3.2586 23.884 2.48C22.6873 1.69419 21.3608 1.0814 19.9478 0.648837C18.5275 0.216279 17.028 0 15.5068 0C13.4089 0 11.3975 0.41093 9.53753 1.21116C7.69916 2.0114 6.04102 3.10721 4.628 4.48419C3.20777 5.86837 2.0687 7.52651 1.24684 9.41535C0.424975 11.3114 0.00683594 13.3588 0.00683594 15.5V29.9186C0.00683594 30.517 0.489859 31 1.08823 31H3.97195C4.57032 31 5.05335 30.517 5.05335 29.9186V15.5C5.05335 14.0798 5.33451 12.7244 5.88242 11.4628C6.43753 10.194 7.19451 9.0693 8.13893 8.13209C9.07614 7.19488 10.2008 6.43791 11.4696 5.87558C13.9929 4.77256 17.0208 4.77256 19.544 5.87558C20.8201 6.4307 21.9375 7.19488 22.8747 8.13209C23.812 9.0693 24.5689 10.194 25.1313 11.4628C25.6864 12.7244 25.9603 14.0798 25.9603 15.5V29.9186C25.9603 30.517 26.4433 31 27.0417 31H29.9254C30.5238 31 31.0068 30.517 31.0068 29.9186V15.5C31.0068 14.0798 31.288 12.7244 31.8359 11.4628C32.391 10.194 33.148 9.0693 34.0924 8.13209C35.0296 7.19488 36.1543 6.43791 37.4231 5.87558C39.9464 4.77256 42.9743 4.77256 45.4975 5.87558C46.7736 6.4307 47.891 7.19488 48.8282 8.13209C49.7654 9.0693 50.5224 10.194 51.0847 11.4628C51.6399 12.7244 51.9138 14.0798 51.9138 15.5V29.9186C51.9138 30.517 52.3968 31 52.9952 31H55.8789C56.4773 31 56.9603 30.517 56.9603 29.9186V15.5C56.9603 13.366 56.5566 11.3186 55.7492 9.42256C54.9489 7.53372 53.8459 5.87558 52.4617 4.4914L52.4545 4.4986Z" fill="#3F35FF"/>
  <path d="M87.5497 4.48419C86.1367 3.10721 84.4858 2.0114 82.6402 1.21116C80.7802 0.403721 78.776 0 76.6709 0C74.5658 0 72.439 0.41093 70.5646 1.21116C68.6974 2.0114 67.0537 3.11442 65.6695 4.4986C64.2853 5.88279 63.1823 7.54093 62.3821 9.42256C61.5818 11.3186 61.1709 13.3588 61.1709 15.5C61.1709 17.6412 61.5818 19.7319 62.3821 21.6063C63.1823 23.4735 64.2853 25.1244 65.6695 26.5014C67.0465 27.8784 68.6974 28.9886 70.5646 29.7888C72.439 30.5963 74.4937 31 76.6709 31C78.8481 31 80.7802 30.5891 82.6402 29.7888C84.4858 28.9886 86.1367 27.8856 87.5497 26.5158C88.97 25.1388 90.109 23.4879 90.9309 21.6207C91.76 19.7391 92.1781 17.6844 92.1781 15.5072C92.1781 13.33 91.76 11.3186 90.9381 9.42256C90.1162 7.53372 88.9772 5.87558 87.5569 4.4914L87.5497 4.48419ZM87.1316 15.5C87.1316 16.9202 86.8504 18.2756 86.3025 19.5372C85.7474 20.8133 84.9832 21.9307 84.046 22.8679C83.1088 23.8051 81.9842 24.5621 80.7153 25.1244C78.1993 26.2274 75.1569 26.2274 72.6409 25.1244C71.3721 24.5693 70.2474 23.8123 69.3102 22.8679C68.373 21.9307 67.616 20.806 67.0537 19.5372C66.4986 18.2756 66.2246 16.9202 66.2246 15.5C66.2246 14.0798 66.5058 12.7244 67.0537 11.4628C67.6088 10.194 68.3658 9.0693 69.3102 8.13209C70.2474 7.19488 71.3721 6.43791 72.6409 5.87558C73.9025 5.32046 75.2579 5.04651 76.6781 5.04651C78.0983 5.04651 79.4537 5.32767 80.7153 5.87558C81.9914 6.4307 83.1088 7.19488 84.046 8.13209C84.9832 9.0693 85.7402 10.194 86.3025 11.4628C86.8576 12.7244 87.1316 14.0798 87.1316 15.5Z" fill="#3F35FF"/>
  <path d="M136.407 0H115.644C114.354 0 113.143 0.230698 112.032 0.684884C110.929 1.13907 109.949 1.7807 109.127 2.58093C108.298 3.38837 107.642 4.34 107.188 5.40698C106.726 6.48116 106.496 7.64186 106.496 8.86023C106.496 10.0786 106.726 11.2537 107.18 12.3567C107.635 13.467 108.291 14.4474 109.12 15.2765C109.942 16.0984 110.915 16.7616 112.004 17.2591C113.121 17.7637 114.347 18.016 115.651 18.016H128.628C129.666 18.016 130.546 18.3693 131.324 19.083C132.081 19.7823 132.449 20.6763 132.449 21.837C132.449 22.9977 132.067 23.9709 131.288 24.7712C130.517 25.5642 129.645 25.9463 128.628 25.9463H107.577C106.979 25.9463 106.496 26.4293 106.496 27.0277V29.9114C106.496 30.5098 106.979 30.9928 107.577 30.9928H128.628C129.861 30.9928 131.029 30.7333 132.117 30.2286C133.17 29.7312 134.114 29.0679 134.915 28.246C135.722 27.4242 136.357 26.4437 136.811 25.3335C137.265 24.2233 137.496 23.0481 137.496 21.837C137.496 20.6258 137.265 19.4579 136.804 18.3837C136.349 17.324 135.708 16.3723 134.9 15.5649C134.093 14.7574 133.148 14.123 132.081 13.6616C131.007 13.2002 129.847 12.9695 128.628 12.9695H115.651C114.476 12.9695 113.517 12.5802 112.724 11.7872C111.931 10.9942 111.542 10.0353 111.542 8.86023C111.542 7.68512 111.917 6.81279 112.688 6.11349C113.489 5.39256 114.462 5.0393 115.651 5.0393H136.414C137.013 5.0393 137.496 4.55628 137.496 3.95791V1.0814C137.496 0.483023 137.013 0 136.414 0H136.407Z" fill="#3F35FF"/>
  <path d="M170.24 9.41535C169.418 7.52651 168.279 5.86837 166.859 4.48419C165.446 3.10721 163.795 2.0114 161.949 1.21116C160.089 0.403721 158.085 0 155.98 0C153.875 0 151.748 0.41093 149.874 1.21116C148.006 2.0114 146.363 3.11442 144.979 4.4986C143.594 5.88279 142.491 7.54093 141.691 9.42256C140.891 11.3186 140.48 13.3588 140.48 15.5C140.48 17.6412 140.891 19.7319 141.691 21.6063C142.491 23.4735 143.594 25.1244 144.979 26.5014C146.356 27.8856 148.006 28.9886 149.874 29.7888C151.748 30.5963 153.803 31 155.98 31C158.157 31 160.089 30.5891 161.949 29.7888C163.795 28.9886 165.446 27.8928 166.859 26.5158C168.279 25.1388 169.418 23.4879 170.24 21.6207C171.062 19.7391 171.487 17.6844 171.487 15.5072C171.487 13.33 171.069 11.3258 170.247 9.42256L170.24 9.41535ZM166.441 15.5C166.441 16.9202 166.16 18.2756 165.604 19.5372C165.049 20.8133 164.285 21.9307 163.348 22.8679C162.411 23.8051 161.286 24.5621 160.017 25.1244C157.501 26.2274 154.459 26.2274 151.943 25.1244C150.674 24.5693 149.549 23.8123 148.612 22.8679C147.675 21.9307 146.918 20.806 146.356 19.5372C145.8 18.2756 145.526 16.9202 145.526 15.5C145.526 14.0798 145.808 12.7244 146.356 11.4628C146.911 10.1867 147.675 9.0693 148.612 8.13209C149.549 7.19488 150.674 6.43791 151.943 5.87558C153.204 5.32046 154.56 5.04651 155.98 5.04651C157.4 5.04651 158.756 5.32767 160.017 5.87558C161.293 6.4307 162.411 7.19488 163.348 8.13209C164.285 9.0693 165.042 10.194 165.604 11.4628C166.16 12.7244 166.441 14.0798 166.441 15.5Z" fill="#3F35FF"/>
  <path d="M100.57 10.093H97.6859C97.0886 10.093 96.6045 10.5772 96.6045 11.1744V29.9186C96.6045 30.5158 97.0886 31 97.6859 31H100.57C101.167 31 101.651 30.5158 101.651 29.9186V11.1744C101.651 10.5772 101.167 10.093 100.57 10.093Z" fill="#3F35FF"/>
  <path d="M100.57 0H97.6859C97.0886 0 96.6045 0.484157 96.6045 1.0814V3.96512C96.6045 4.56235 97.0886 5.04651 97.6859 5.04651H100.57C101.167 5.04651 101.651 4.56235 101.651 3.96512V1.0814C101.651 0.484157 101.167 0 100.57 0Z" fill="#3F35FF"/>
  </g>
  <defs>
  <clipPath id="clip0_52_33">
  <rect width="171.488" height="31" fill="white"/>
  </clipPath>
  </defs>
  </svg>
  